REM DIRINDEX 1\2,1\3,1\4,1\5,1\6,1\7,1\8
REM DIRNAME folder01,folder02,folder03,folder04,folder05,folder06,folder07,folder08
TITLE ""
FILE "009 でる文69.mp3" MP3
  TRACK 01 AUDIO
    TITLE "0:"
    INDEX 01 00:00:00
  TRACK 02 AUDIO
    TITLE "8:cjc150_3303"
    INDEX 01 00:00:01
  TRACK 03 AUDIO
    TITLE "0:"
    INDEX 01 00:01:68
  TRACK 04 AUDIO
    TITLE "2:cjc150_3304"
    INDEX 01 00:02:51
  TRACK 05 AUDIO
    TITLE "0:"
    INDEX 01 00:08:01
  TRACK 06 AUDIO
    TITLE "8:cjc150_3305"
    INDEX 01 00:09:36
  TRACK 07 AUDIO
    TITLE "0:"
    INDEX 01 00:12:12
  TRACK 08 AUDIO
    TITLE "3:cjc150_3306"
    INDEX 01 00:13:00
  TRACK 09 AUDIO
    TITLE "3:cjc150_3307"
    INDEX 01 00:15:01
  TRACK 10 AUDIO
    TITLE "3:cjc150_3308"
    INDEX 01 00:17:00
  TRACK 11 AUDIO
    TITLE "3:cjc150_3309"
    INDEX 01 00:18:54
  TRACK 12 AUDIO
    TITLE "3:cjc150_3310"
    INDEX 01 00:20:36
  TRACK 13 AUDIO
    TITLE "3:cjc150_3311"
    INDEX 01 00:22:50
  TRACK 14 AUDIO
    TITLE "3:cjc150_3312"
    INDEX 01 00:24:57
  TRACK 15 AUDIO
    TITLE "3:cjc150_3313"
    INDEX 01 00:26:11
  TRACK 16 AUDIO
    TITLE "8:cjc150_3314"
    INDEX 01 00:27:38
  TRACK 17 AUDIO
    TITLE "0:"
    INDEX 01 00:30:12
  TRACK 18 AUDIO
    TITLE "4:cjc150_3315"
    INDEX 01 00:31:00
  TRACK 19 AUDIO
    TITLE "4:cjc150_3316"
    INDEX 01 00:33:05
  TRACK 20 AUDIO
    TITLE "4:cjc150_3317"
    INDEX 01 00:35:41
  TRACK 21 AUDIO
    TITLE "4:cjc150_3318"
    INDEX 01 00:38:67
  TRACK 22 AUDIO
    TITLE "4:cjc150_3319"
    INDEX 01 00:42:47
  TRACK 23 AUDIO
    TITLE "4:cjc150_3320"
    INDEX 01 00:44:01
  TRACK 24 AUDIO
    TITLE "8:cjc150_3321"
    INDEX 01 00:45:71
  TRACK 25 AUDIO
    TITLE "0:"
    INDEX 01 00:48:63
  TRACK 26 AUDIO
    TITLE "5:cjc150_3322"
    INDEX 01 00:49:41
  TRACK 27 AUDIO
    TITLE "5:cjc150_3323"
    INDEX 01 00:52:06
  TRACK 28 AUDIO
    TITLE "5:cjc150_3324"
    INDEX 01 00:54:64
  TRACK 29 AUDIO
    TITLE "5:cjc150_3325"
    INDEX 01 00:56:65
  TRACK 30 AUDIO
    TITLE "5:cjc150_3326"
    INDEX 01 00:58:62
  TRACK 31 AUDIO
    TITLE "5:cjc150_3327"
    INDEX 01 01:00:53
  TRACK 32 AUDIO
    TITLE "5:cjc150_3328"
    INDEX 01 01:03:24
  TRACK 33 AUDIO
    TITLE "5:cjc150_3329"
    INDEX 01 01:05:03
  TRACK 34 AUDIO
    TITLE "5:cjc150_3330"
    INDEX 01 01:06:55
  TRACK 35 AUDIO
    TITLE "5:cjc150_3331"
    INDEX 01 01:08:56
  TRACK 36 AUDIO
    TITLE "5:cjc150_3332"
    INDEX 01 01:11:56
  TRACK 37 AUDIO
    TITLE "5:cjc150_3333"
    INDEX 01 01:13:71
  TRACK 38 AUDIO
    TITLE "5:cjc150_3334"
    INDEX 01 01:16:03
  TRACK 39 AUDIO
    TITLE "5:cjc150_3335"
    INDEX 01 01:17:57
  TRACK 40 AUDIO
    TITLE "5:cjc150_3336"
    INDEX 01 01:20:06
  TRACK 41 AUDIO
    TITLE "5:cjc150_3337"
    INDEX 01 01:21:33
  TRACK 42 AUDIO
    TITLE "8:cjc150_3338"
    INDEX 01 01:22:68
  TRACK 43 AUDIO
    TITLE "0:"
    INDEX 01 01:25:45
  TRACK 44 AUDIO
    TITLE "6:cjc150_3339"
    INDEX 01 01:26:27
  TRACK 45 AUDIO
    TITLE "6:cjc150_3340"
    INDEX 01 01:28:61
  TRACK 46 AUDIO
    TITLE "6:cjc150_3341"
    INDEX 01 01:31:47
  TRACK 47 AUDIO
    TITLE "6:cjc150_3342"
    INDEX 01 01:33:50
  TRACK 48 AUDIO
    TITLE "6:cjc150_3343"
    INDEX 01 01:35:41
  TRACK 49 AUDIO
    TITLE "6:cjc150_3344"
    INDEX 01 01:38:73
  TRACK 50 AUDIO
    TITLE "6:cjc150_3345"
    INDEX 01 01:43:09
  TRACK 51 AUDIO
    TITLE "6:cjc150_3346"
    INDEX 01 01:46:35
  TRACK 52 AUDIO
    TITLE "6:cjc150_3347"
    INDEX 01 01:49:51
  TRACK 53 AUDIO
    TITLE "6:cjc150_3348"
    INDEX 01 01:51:32
  TRACK 54 AUDIO
    TITLE "6:cjc150_3349"
    INDEX 01 01:53:47
  TRACK 55 AUDIO
    TITLE "6:cjc150_3350"
    INDEX 01 01:55:03
  TRACK 56 AUDIO
    TITLE "8:cjc150_3351"
    INDEX 01 01:55:65
  TRACK 57 AUDIO
    TITLE "0:"
    INDEX 01 01:57:45
  TRACK 58 AUDIO
    TITLE "7:cjc150_3352"
    INDEX 01 01:58:42
  TRACK 59 AUDIO
    TITLE "7:cjc150_3353"
    INDEX 01 02:03:69
  TRACK 60 AUDIO
    TITLE "0:"
    INDEX 01 02:09:36
